<svg xmlns="http://www.w3.org/2000/svg" width="432" height="190.34" viewBox="0 0 432 190.34"><title>trex-logo</title><path d="M135.3,65.81c-2.38,2.63-2.8,5.29-5.32,9.5-3.59,6-8.83,21.28-17.71,22.64C105.11,99.05,100.07,95,94,79.11c-5.74-15-5.32-18.84-9-25.67S74.58,41.06,67.11,44.72s-6.83,11.89-4.32,18.16C64.17,66.35,70.85,75,76.46,82.7A62.33,62.33,0,0,1,85.3,96.31c3.52,7.62,7.81,17.36-1.34,20s-16.39-.73-19.72-1.92-12.43-5.68-19.36-1.6-6,13.29-5.47,15.28,4.24,8.93,11.91,8.87c8.22-.06,12.45-3.67,17.74-3.69s12.74-.5,18.52,6,7.3,10.08,17.5,15.58,21.07,2.15,28.06-5.73c4.78-5.39,6.8-14.12,5.52-20.87-1.12-6-3-10.71-4.21-16.75s-2.79-11.56,2.42-19S147,84.27,150,79.21c3.2-5.3,3.25-13.35-3.5-16.65C142.93,60.8,139.31,61.4,135.3,65.81Z" fill="#a1cd4b"/><path d="M160.15,39c-3.19,2.62-8.44,6.53-9,11.8-.44,3.92,1.41,7.43,4.1,7.88a8.31,8.31,0,0,0,9.29-4.84c2.37-4.85,2.22-8.22,1.71-14.54L165.71,33A33.46,33.46,0,0,1,160.15,39Z" fill="#a1cd4b"/><path d="M66.09,35.53c2.43-3.24-1.83-9.59-5.59-13.51C56.32,17.65,45.75,6.15,45.75,6.15a49.45,49.45,0,0,0,1.13,14.39c1.77,7.3,3.87,13,7.95,16S62.88,39.82,66.09,35.53Z" fill="#a1cd4b"/><path d="M19.16,113.39C11.59,113.92,0,118.25,0,118.25S12.14,126,23.32,127c6.66.56,8.57-4,8.36-7.49S27.4,112.82,19.16,113.39Z" fill="#a1cd4b"/><g style="isolation:isolate"><path d="M229.28,46.4h16.87v3.24h-6.43V70.58h-4V49.64h-6.47Z" fill="#fff"/><path d="M258.39,70.89c-5.49,0-9.56-3.9-9.56-9.91s3.89-9.88,9.56-9.88c5.46,0,9.32,3.79,9.32,9.42a11.56,11.56,0,0,1-.14,1.95H252.93a5.27,5.27,0,0,0,5.46,5.08,4.63,4.63,0,0,0,4.52-2.68h4.28C266.11,68.21,263.09,70.89,258.39,70.89ZM253,59.27h10.6c-.06-3-2.4-4.83-5.35-4.83A5.21,5.21,0,0,0,253,59.27Z" fill="#fff"/><path d="M279.68,51.1c4.69,0,7.75,2.33,8.83,6.36h-4.28a4.47,4.47,0,0,0-4.55-3c-3.2,0-5.33,2.36-5.33,6.54s2.13,6.57,5.33,6.57a4.37,4.37,0,0,0,4.55-3h4.28c-1.08,3.76-4.14,6.37-8.83,6.37-5.5,0-9.39-3.9-9.39-9.91S274.18,51.1,279.68,51.1Z" fill="#fff"/><path d="M292.47,44.84h4v8.8a7.6,7.6,0,0,1,5.95-2.54c4.27,0,7.61,2.82,7.61,8.17V70.58h-3.93V59.86c0-3.51-1.91-5.32-4.8-5.32s-4.83,1.81-4.83,5.32V70.58h-4Z" fill="#fff"/><path d="M328.64,59.86c0-3.51-1.91-5.32-4.8-5.32S319,56.35,319,59.86V70.58h-4V51.41h4V53.6a7.39,7.39,0,0,1,5.7-2.5c4.49,0,7.86,2.82,7.86,8.17V70.58h-3.93Z" fill="#fff"/><path d="M345.93,70.89c-5.46,0-9.6-3.9-9.6-9.91a9.77,9.77,0,1,1,19.54,0A9.6,9.6,0,0,1,345.93,70.89Zm0-3.44c2.95,0,5.87-2.13,5.87-6.47S349,54.54,346,54.54s-5.67,2.09-5.67,6.44S342.93,67.45,345.93,67.45Z" fill="#fff"/><path d="M359.8,44.84h4V70.58h-4Z" fill="#fff"/><path d="M377.29,70.89c-5.46,0-9.59-3.9-9.59-9.91a9.77,9.77,0,1,1,19.54,0A9.6,9.6,0,0,1,377.29,70.89Zm0-3.44c3,0,5.88-2.13,5.88-6.47s-2.81-6.44-5.77-6.44-5.67,2.09-5.67,6.44S374.3,67.45,377.29,67.45Z" fill="#fff"/><path d="M398.89,51.1a8.12,8.12,0,0,1,6.64,3.09V51.41h4V70.89c0,5.22-3.37,9.15-9.35,9.15-5.11,0-8.91-2.54-9.39-6.79h3.93c.59,2,2.71,3.34,5.46,3.34,3.06,0,5.35-1.87,5.35-5.7v-3.2a8.22,8.22,0,0,1-6.64,3.2c-5,0-9-4.07-9-10S393.85,51.1,398.89,51.1Zm.84,3.44c-3,0-5.81,2.23-5.81,6.37s2.85,6.54,5.81,6.54,5.8-2.33,5.8-6.47S402.72,54.54,399.73,54.54Z" fill="#fff"/><path d="M427.9,51.41H432L420.24,79.58h-4.1l3.9-9.32-7.55-18.85h4.42L422.3,66Z" fill="#fff"/></g><g style="isolation:isolate"><path d="M238.88,83.23c5.74,0,8.56,3.3,8.56,7.23a6.88,6.88,0,0,1-5.6,6.92l6,10h-4.73l-5.56-9.67h-3v9.67h-4V83.23Zm0,3.23H234.5v8.11h4.38c3.1,0,4.49-1.71,4.49-4.11S242,86.46,238.88,86.46Z" fill="#fff"/><path d="M260.76,107.71c-5.5,0-9.57-3.89-9.57-9.91s3.9-9.88,9.57-9.88c5.46,0,9.32,3.79,9.32,9.43a12.79,12.79,0,0,1-.14,2H255.3a5.26,5.26,0,0,0,5.46,5.07,4.64,4.64,0,0,0,4.52-2.67h4.28C268.48,105,265.45,107.71,260.76,107.71ZM255.33,96.1h10.61c-.07-3-2.4-4.84-5.36-4.84A5.22,5.22,0,0,0,255.33,96.1Z" fill="#fff"/><path d="M280.93,107.71c-4.59,0-7.83-2.71-8-6.19H277c.14,1.57,1.64,2.85,3.83,2.85s3.51-1,3.51-2.29c0-3.76-11.13-1.6-11.13-8.63,0-3.06,2.85-5.53,7.37-5.53,4.35,0,7.2,2.33,7.41,6.16h-4c-.14-1.67-1.43-2.82-3.58-2.82s-3.24.87-3.24,2.16c0,3.86,10.82,1.7,11,8.62C288.27,105.28,285.45,107.71,280.93,107.71Z" fill="#fff"/><path d="M300.85,107.71c-5.46,0-9.59-3.89-9.59-9.91a9.77,9.77,0,1,1,19.54,0A9.59,9.59,0,0,1,300.85,107.71Zm0-3.44c3,0,5.88-2.12,5.88-6.47s-2.81-6.43-5.77-6.43-5.67,2.08-5.67,6.43S297.86,104.27,300.85,104.27Z" fill="#fff"/><path d="M332.09,107.4h-4v-2.3a7.12,7.12,0,0,1-5.67,2.58c-4.49,0-7.89-2.82-7.89-8.18V88.24h3.93V98.91c0,3.52,1.91,5.32,4.8,5.32s4.83-1.8,4.83-5.32V88.24h4Z" fill="#fff"/><path d="M341.26,107.4h-4V88.24h4V91a6.26,6.26,0,0,1,5.74-3.1V92h-1c-2.93,0-4.74,1.21-4.74,5.28Z" fill="#fff"/><path d="M358.72,87.92c4.7,0,7.76,2.33,8.84,6.37h-4.28a4.47,4.47,0,0,0-4.56-3c-3.2,0-5.32,2.37-5.32,6.54s2.12,6.57,5.32,6.57a4.38,4.38,0,0,0,4.56-3h4.28c-1.08,3.75-4.14,6.36-8.84,6.36-5.49,0-9.39-3.89-9.39-9.91S353.23,87.92,358.72,87.92Z" fill="#fff"/><path d="M379.76,107.71c-5.49,0-9.56-3.89-9.56-9.91s3.89-9.88,9.56-9.88c5.46,0,9.32,3.79,9.32,9.43a12.78,12.78,0,0,1-.13,2H374.3a5.27,5.27,0,0,0,5.46,5.07,4.63,4.63,0,0,0,4.52-2.67h4.28C387.48,105,384.46,107.71,379.76,107.71ZM374.34,96.1H385c-.07-3-2.4-4.84-5.36-4.84A5.22,5.22,0,0,0,374.34,96.1Z" fill="#fff"/></g><g style="isolation:isolate"><path d="M243.89,123.25H234.5v7.1h8.35v3.23H234.5V141h9.39v3.23H230.54V120h13.35Z" fill="#fff"/><path d="M254.53,137.72l-3.89,6.5H246.5l6.19-9.42-6.19-9.74H251l4.14,6.5,3.9-6.5h4.14L257,134.52l6.19,9.7h-4.49Z" fill="#fff"/><path d="M276.75,124.75c5.05,0,9,3.89,9,9.8s-4,10-9,10a8.64,8.64,0,0,1-6.67-3.1v11.9h-4V125.06h4v2.82A8.33,8.33,0,0,1,276.75,124.75Zm-.87,3.44c-2.95,0-5.8,2.33-5.8,6.43s2.85,6.47,5.8,6.47,5.85-2.4,5.85-6.54S278.88,128.19,275.88,128.19Z" fill="#fff"/><path d="M297.93,144.54c-5.49,0-9.56-3.9-9.56-9.92s3.89-9.87,9.56-9.87c5.46,0,9.32,3.79,9.32,9.42a12.78,12.78,0,0,1-.13,2H292.47a5.28,5.28,0,0,0,5.46,5.08,4.64,4.64,0,0,0,4.52-2.68h4.28C305.65,141.86,302.63,144.54,297.93,144.54Zm-5.42-11.62h10.61c-.07-3-2.4-4.83-5.36-4.83A5.21,5.21,0,0,0,292.51,132.92Z" fill="#fff"/><path d="M315.11,144.22h-4V125.06h4v2.78a6.26,6.26,0,0,1,5.74-3.09v4.1h-1c-2.92,0-4.73,1.22-4.73,5.29Z" fill="#fff"/><path d="M325.13,128.29h-2.26v-3.23h2.26v-4.77h4v4.77h4.66v3.23h-4.66V138.9c0,1.43.55,2,2.22,2h2.44v3.3h-3.13c-3.41,0-5.53-1.42-5.53-5.32Z" fill="#fff"/><path d="M344.39,144.54c-4.59,0-7.82-2.72-8-6.19h4.1c.14,1.56,1.63,2.85,3.83,2.85s3.51-1,3.51-2.3c0-3.75-11.13-1.6-11.13-8.62,0-3.06,2.85-5.53,7.37-5.53,4.35,0,7.2,2.33,7.41,6.15h-4c-.14-1.67-1.43-2.81-3.59-2.81s-3.23.86-3.23,2.15c0,3.86,10.81,1.71,11,8.63C351.73,142.1,348.92,144.54,344.39,144.54Z" fill="#fff"/><path d="M356.05,139.46h4.31l-4.21,9.6h-2.57Z" fill="#fff"/><path d="M376.84,120.05v21H385v3.2H372.88V120.05Z" fill="#fff"/><path d="M392.28,120.05v21h8.18v3.2H388.32V120.05Z" fill="#fff"/><path d="M414.78,119.74c5.05,0,9.39,2.54,11.24,7.27h-4.77a6.73,6.73,0,0,0-6.47-3.79c-4.8,0-8.27,3.4-8.27,8.86S410,141,414.78,141a6.75,6.75,0,0,0,6.47-3.79H426c-1.85,4.73-6.19,7.23-11.24,7.23a12.35,12.35,0,0,1,0-24.69Z" fill="#fff"/></g><rect x="194.59" width="1.02" height="190.34" fill="#fff"/></svg>